<svg xmlns="http://www.w3.org/2000/svg" viewBox="0 0 902 272" xml:space="preserve">
    <switch>
        <g>
            <g fill="#FFF">
                <path d="M422.6 127.8c-28-6-33.1-12.5-33.1-23.1v-.4c0-11.2 10.5-19 25.4-19 11.8 0 21.6 3.3 31.8 10.7 1.5 1 3 1.5 4.9 1.5 4.5 0 8.2-3.7 8.2-8.2 0-3.8-2.5-6.1-3.6-6.9-12.2-8.8-24.8-12.7-40.9-12.7-24.8 0-42.8 15-42.8 35.8v.4c0 17 7.4 29.9 43.4 37.7 26.6 5.6 31.7 12.3 31.7 22.6v.4c0 11.8-11 20-26.7 20-15.2 0-26.8-4.4-38.8-14.6-1.3-1.2-3.3-2-5.3-2-4.6 0-8.2 3.7-8.2 8.4 0 2.7 1.2 5.1 3.3 6.5 14.6 11.6 30.4 17.2 48.5 17.2 26.1 0 44.4-15.2 44.4-37v-.4c0-19.4-12.6-30.5-42.2-36.9zM601.6 71.6h-87c-3.7 0-7.1 2.4-8 6.1-1.3 5.2 2.7 9.9 7.8 9.9h32.9c1.2 0 2.2 1 2.2 2.2v102.6c0 4.6 3.4 8.6 8 8.9 5 .3 9.2-3.6 9.2-8.6V89.8c0-1.2 1-2.2 2.2-2.2h32.9c5.1 0 9.1-4.7 7.8-9.9-.9-3.6-4.3-6.1-8-6.1zM706.6 77.3c-1.9-4.7-5.4-7.2-10.1-7.2h-.7c-4.7 0-8.1 2.3-10.3 7.1L634.4 189c-.7 1.3-1 2.7-1 4.2-.1 4.3 3.6 8.1 7.9 8.1 3.7 0 6.6-2 8.1-5.7l12.2-27.2c.4-.8 1.2-1.3 2-1.3H728c.9 0 1.7.5 2 1.3l12.2 26.8c1.7 3.8 4.7 6.1 8.3 6.1 4.5 0 8.2-3.7 8.2-8.2 0-1.2-.3-2.6-1-4.2L706.6 77.3zm-36.2 70.8 23.3-51.9c.8-1.8 3.3-1.8 4.1 0l23.3 51.9c.7 1.5-.4 3.2-2.1 3.2h-46.6c-1.6.1-2.7-1.6-2-3.2zM892.9 184.6h-68.1c-1.2 0-2.2-1-2.2-2.2v-36.9c0-1.2 1-2.2 2.2-2.2h59c3.6 0 7-2.3 7.9-5.8 1.4-5.1-2.7-9.9-7.6-9.9h-59.4c-1.2 0-2.2-1-2.2-2.2V89.6c0-1.2 1-2.2 2.2-2.2h67.2c4 0 7.6-2.9 8.1-6.8.6-4.8-3.1-8.9-7.8-8.9h-78.3c-4.6 0-8.4 3.9-8.4 8.6v111.6c0 4.7 3.8 8.6 8.4 8.6h79.2c4.7 0 8.4-4.1 7.8-8.9-.5-4.1-4-7-8-7z"/>
            </g>
            <path fill="#FFF" d="M261 1H61c-5.5 0-10 4.5-10 10v132.3c0 4.1-3.4 7.5-7.5 7.5H11c-5.5 0-10 4.5-10 10v100.1c0 5.5 4.5 10.1 10 10.1h199.7c5.5 0 10-4.6 10-10.1V128.2c0-4.1 3.4-7.5 7.5-7.5H261c5.5 0 10-4.5 10-10V11c0-5.5-4.5-10-10-10zm-67.8 249.6H28.5c-4.1 0-7.5-3.4-7.5-7.5v-64.9c0-4.1 3.4-7.5 7.5-7.5h14.7c4.8 0 7.8 3.7 7.8 8l-.1 32c0 5 4.3 9.9 10.1 9.9h99.5c6.2 0 10.2-5 10.2-11.2v-81.2c0-4.1 3.3-7.4 7.4-7.4l15.1-.1c4.1 0 7.5 3.4 7.5 7.5v114.7c.1 4.3-3.4 7.7-7.5 7.7zm0-149.8h-32.3c-5.6 0-10.1 4.2-10.1 10.4v82c0 4.1-3.3 7.4-7.4 7.4H78.3c-4.1 0-7.4-3.3-7.4-7.4l.1-15.1c0-4.1 3.3-7.4 7.4-7.4h32.4c5.5 0 10-4.5 10-10V78.4c0-4.1 3.4-7.5 7.5-7.5h64.9c4.1 0 7.5 3.4 7.5 7.5v14.9c0 4.2-3.4 7.5-7.5 7.5zm49.9 0h-14.9c-4.1 0-7.5-3.4-7.5-7.5V60.9c0-5.5-4.5-10-10-10h-100c-5.5 0-10 4.5-10 10v82.4c0 4.1-3.3 7.4-7.4 7.4H78.5c-4.1 0-7.4-3.3-7.4-7.4V28.5c0-4.1 3.4-7.5 7.5-7.5h164.7c4.1 0 7.4 3.3 7.4 7.4v64.9c-.1 4.2-3.4 7.5-7.6 7.5z"/>
        </g>
    </switch>
</svg>
